<svg width="512" height="487" viewBox="0 0 512 487" version="1.1" xmlns="http://www.w3.org/2000/svg" xmlns:xlink="http://www.w3.org/1999/xlink">
<title>berries</title>
<desc>Created using Figma</desc>
<g id="Canvas" transform="translate(345 -972)">
<g id="berries">
<g id="Group">
<g id="Group">
<g id="Vector">
<use xlink:href="#path0_fill" transform="translate(-345 972)" fill="#FFFFFF"/>
</g>
</g>
</g>
<g id="Group">
<g id="Group">
<g id="Vector">
<use xlink:href="#path1_fill" transform="translate(-86.9322 1314.46)" fill="#FFFFFF"/>
</g>
</g>
</g>
<g id="Group">
<g id="Group">
<g id="Vector">
<use xlink:href="#path2_fill" transform="translate(12.1728 1207.69)" fill="#FFFFFF"/>
</g>
</g>
</g>
</g>
</g>
<defs>
<path id="path0_fill" d="M 399.449 205.554C 398.078 205.554 396.683 205.585 395.275 205.636C 381.728 191.672 364.848 181.552 346.452 176.092C 350.673 131.962 331.155 89.7403 311.832 59.7783C 309.499 56.1603 304.64 55.1863 301.084 57.6143C 297.655 59.9553 296.721 64.5953 298.972 68.0863C 316.624 95.4473 334.459 133.55 331.39 172.73C 325.826 171.881 320.176 171.44 314.484 171.44C 297.454 171.44 281.299 175.249 266.815 182.049L 266.815 168.342L 303.621 131.536C 306.585 128.572 306.885 123.704 304.012 120.653C 301.039 117.495 296.067 117.438 293.02 120.484L 266.814 146.69L 266.814 105.677C 266.814 101.485 263.585 97.8302 259.395 97.7052C 255.06 97.5742 251.504 101.051 251.504 105.357L 251.504 146.69L 225.299 120.484C 222.31 117.494 217.463 117.494 214.474 120.484C 211.485 123.474 211.484 128.321 214.474 131.309L 251.505 168.34L 251.505 190.752C 237.828 200.02 226.294 212.218 217.799 226.433C 216.632 194.734 206.884 167.61 188.581 145.41C 188.395 145.185 188.201 144.965 188.013 144.741C 196.814 86.3273 243.45 34.4503 259.174 18.3913C 263.257 22.5463 269.411 29.0932 276.412 37.4992C 279.071 40.6922 283.8 41.1722 287.052 38.5862L 287.055 38.5842C 290.423 35.9062 290.911 30.9842 288.158 27.6762C 275.004 11.8712 264.824 2.46025 264.347 2.02125C 261.419 -0.673749 256.911 -0.673749 253.982 2.02125C 251.239 4.54425 190.725 60.9013 174.967 131.286C 151.043 109.852 117.228 94.4862 75.8918 86.4532C 38.6308 79.2102 8.68082 80.3632 7.42482 80.4152C 3.44782 80.5812 0.262822 83.7672 0.0968222 87.7432C 0.0448222 88.9992 -1.10618 118.949 6.13382 156.209C 15.8348 206.131 36.2228 245.098 65.0908 268.898C 68.5628 271.76 72.1688 274.388 75.8808 276.832C 28.0728 316.415 1.83682 374.101 0.679822 376.682C -0.948178 380.314 0.477822 384.587 3.95982 386.512C 6.95982 388.171 68.0298 421.465 133.369 421.462C 142.689 421.461 152.1 420.768 161.44 419.225C 178.997 458.572 218.487 486.067 264.282 486.067C 307.779 486.067 345.589 461.262 364.32 425.057C 375.611 428.772 387.394 430.658 399.45 430.658C 419.272 430.658 438.482 425.523 455.484 415.739C 459.309 413.537 460.412 408.514 457.942 404.856C 455.678 401.505 451.224 400.534 447.715 402.545C 433.065 410.941 416.522 415.347 399.45 415.347C 389.502 415.347 379.778 413.844 370.436 410.92C 374.574 399.211 376.835 386.623 376.835 373.515C 376.835 329.139 351.018 290.684 313.617 272.368C 329.321 242.843 358.964 223.418 392.644 221.096C 394.946 220.942 397.235 220.863 399.45 220.863C 453.069 220.863 496.691 264.486 496.691 318.104C 496.691 339.948 489.406 360.961 476.046 378.018C 473.561 381.191 473.902 385.73 476.885 388.442L 476.887 388.444C 480.196 391.452 485.343 390.975 488.101 387.455C 503.567 367.711 512.001 343.386 512.001 318.104C 512 256.045 461.509 205.554 399.449 205.554ZM 74.8688 257.118C 41.9648 230.016 27.5398 185.891 21.2338 153.647C 16.3288 128.569 15.4308 106.552 15.3328 95.6472C 26.1698 95.7412 47.9828 96.6262 72.9708 101.481C 131.581 112.871 161.767 136.952 176.768 155.148C 200.198 183.569 207.716 221.716 199.192 268.684L 175.788 245.28L 175.788 177.274C 175.788 173.046 172.361 169.619 168.133 169.619C 163.905 169.619 160.478 173.046 160.478 177.274L 160.478 229.969L 126.781 196.272L 126.781 143.901C 126.781 139.673 123.354 136.246 119.126 136.246C 114.898 136.246 111.471 139.673 111.471 143.901L 111.471 180.962L 82.2438 151.735C 79.2538 148.745 74.4068 148.745 71.4188 151.735C 68.4288 154.725 68.4288 159.572 71.4188 162.56L 100.646 191.787L 63.5858 191.787C 59.3578 191.787 55.9308 195.214 55.9308 199.442C 55.9308 203.67 59.3578 207.097 63.5858 207.097L 115.956 207.097L 149.653 240.794L 96.9548 240.794C 92.7268 240.794 89.2998 244.221 89.2998 248.449C 89.2998 252.677 92.7268 256.104 96.9548 256.104L 164.961 256.104L 188.365 279.508C 141.418 288.03 103.285 280.522 74.8688 257.118ZM 131.946 330.271L 85.9158 307.275C 82.1328 305.386 77.5358 306.92 75.6458 310.701C 73.7568 314.484 75.2908 319.081 79.0718 320.971L 111.406 337.124L 58.5218 354.773C 54.5118 356.111 52.3458 360.447 53.6838 364.457C 54.7538 367.664 57.7398 369.691 60.9438 369.691C 61.7468 369.691 62.5638 369.563 63.3678 369.295L 117.482 351.237L 100.51 385.208C 98.6208 388.991 100.155 393.588 103.936 395.478C 105.035 396.027 106.202 396.286 107.351 396.286C 110.16 396.286 112.865 394.734 114.205 392.051L 138.019 344.383L 157.514 337.877C 153.764 349.082 151.728 361.065 151.728 373.515C 151.728 384.284 153.251 394.703 156.088 404.571C 99.0298 412.764 37.5878 386.014 17.8548 376.412C 26.3888 359.753 51.6628 314.93 90.2128 284.956C 108.589 293.796 129.425 298.247 152.624 298.247C 162.283 298.247 172.362 297.457 182.827 295.919C 176.249 302.821 170.543 310.56 165.873 318.949L 131.946 330.271ZM 361.523 373.516C 361.523 427.135 317.901 470.757 264.282 470.757C 210.663 470.757 167.04 427.134 167.04 373.516C 167.04 319.897 210.663 276.274 264.282 276.274C 317.901 276.274 361.523 319.897 361.523 373.516ZM 299.37 266.571C 288.323 262.937 276.529 260.963 264.282 260.963C 247.845 260.963 232.221 264.506 218.129 270.867C 224.556 223.432 265.313 186.748 314.482 186.748C 336.708 186.748 358.195 194.413 375.334 208.146C 342.683 215.24 314.831 236.499 299.37 266.571Z"/>
<path id="path1_fill" d="M 35.473 -2.92969e-06C 15.914 -2.92969e-06 -6.83594e-06 15.913 -6.83594e-06 35.473C -6.83594e-06 55.033 15.913 70.946 35.473 70.946C 55.033 70.946 70.947 55.033 70.947 35.473C 70.947 15.913 55.034 -2.92969e-06 35.473 -2.92969e-06ZM 35.473 55.635C 24.355 55.635 15.311 46.59 15.311 35.473C 15.311 24.356 24.355 15.311 35.473 15.311C 46.591 15.311 55.637 24.356 55.637 35.473C 55.637 46.589 46.592 55.635 35.473 55.635Z"/>
<path id="path2_fill" d="M 40.24 -2.31934e-06C 17.299 -2.31934e-06 4.15039e-06 10.444 4.15039e-06 24.293C 4.15039e-06 38.142 17.299 48.586 40.24 48.586C 63.181 48.586 80.48 38.142 80.48 24.293C 80.48 10.444 63.18 -2.31934e-06 40.24 -2.31934e-06ZM 59.799 29.24C 54.775 31.805 47.647 33.276 40.239 33.276C 32.831 33.276 25.703 31.805 20.679 29.24C 16.74 27.228 15.309 25.179 15.309 24.293C 15.309 23.407 16.739 21.358 20.679 19.346C 25.703 16.781 32.831 15.31 40.239 15.31C 47.647 15.31 54.775 16.781 59.799 19.346C 63.739 21.358 65.169 23.407 65.169 24.293C 65.169 25.18 63.739 27.228 59.799 29.24Z"/>
</defs>
</svg>
