<svg width="513" height="512" viewBox="0 0 513 512" version="1.1" xmlns="http://www.w3.org/2000/svg" xmlns:xlink="http://www.w3.org/1999/xlink">
<title>ecology</title>
<desc>Created using Figma</desc>
<g id="Canvas" transform="translate(172 -768)">
<g id="ecology">
<g id="Group">
<g id="Group">
<g id="Group">
<g id="Vector">
<use xlink:href="#path0_fill" transform="translate(15.7446 768)" fill="#FFF7F7"/>
</g>
<g id="Vector">
<use xlink:href="#path1_fill" transform="translate(186.388 836.285)" fill="#FFF7F7"/>
</g>
<g id="Vector">
<use xlink:href="#path2_fill" transform="translate(-69.599 1109.31)" fill="#FFF7F7"/>
</g>
<g id="Vector">
<use xlink:href="#path3_fill" transform="translate(-154.933 1211.73)" fill="#FFF7F7"/>
</g>
<g id="Vector">
<use xlink:href="#path4_fill" transform="translate(-172 1041.07)" fill="#FFF7F7"/>
</g>
<g id="Vector">
<use xlink:href="#path5_fill" transform="translate(-69.6 1075.2)" fill="#FFF7F7"/>
</g>
</g>
</g>
</g>
</g>
</g>
<defs>
<path id="path0_fill" d="M 28.1064 125.483C 54.8924 152.286 93.5144 153.643 100.989 153.643L 136.539 153.626L 136.539 315.751C 136.539 320.47 140.336 324.284 145.055 324.284C 149.774 324.284 153.588 320.47 153.588 315.751L 153.588 102.725C 153.665 100.899 155.056 57.686 125.454 28.084C 99.4194 2.023 63.1864 5.21541e-11 52.7074 5.21541e-11L 8.55644 0.017C 3.83744 0.017 0.0234467 3.84 0.0234467 8.55L 0.0324341 50.824C -0.0455659 52.651 -1.49556 95.864 28.1064 125.483ZM 17.0894 51.183L 17.0894 17.084L 52.7074 17.067C 58.9884 17.067 91.4404 18.176 113.388 40.15C 137.614 64.376 136.573 101.684 136.556 102.384L 136.556 124.417L 48.7224 36.592C 45.3854 33.255 39.9844 33.255 36.6564 36.592C 33.3204 39.929 33.3204 45.322 36.6564 48.658L 124.566 136.56L 100.988 136.577C 94.6994 136.577 62.2044 135.459 40.1714 113.409C 15.9634 89.191 17.0724 51.892 17.0894 51.183Z"/>
<path id="path1_fill" d="M 0.0294072 145.015C 0.0214072 146.176 0.242423 147.319 0.695423 148.403C 0.755423 148.54 0.874406 148.633 0.934406 148.761C 1.34441 149.614 1.81342 150.434 2.51342 151.133C 3.16242 151.782 3.93041 152.2 4.70641 152.592C 4.90241 152.694 5.04743 152.865 5.25243 152.959C 6.30243 153.394 7.41941 153.633 8.54641 153.633C 8.57241 153.633 8.58943 153.624 8.61443 153.624L 50.8374 153.615L 52.6384 153.641C 60.1134 153.641 98.7354 152.293 125.496 125.524C 155.124 95.913 153.665 52.692 153.596 51.224L 153.596 8.558C 153.596 3.848 149.782 0.0250019 145.063 0.0250019L 102.755 0.0339969L 100.954 3.66211e-07C 93.4794 3.66211e-07 54.8744 1.357 28.0964 28.126C -1.51458 57.737 -0.0375857 100.958 0.0304143 102.426L 0.0304143 145.015L 0.0294072 145.015ZM 40.1614 40.191C 62.1774 18.184 94.6634 17.066 100.952 17.066L 136.528 17.092L 136.536 51.558C 136.545 51.933 137.662 89.233 113.428 113.459C 91.4294 135.467 58.9264 136.576 52.6364 136.576L 29.1524 136.567L 116.994 48.725C 120.331 45.388 120.331 39.995 116.994 36.659C 113.657 33.323 108.256 33.322 104.928 36.659L 17.0944 124.493L 17.0854 102.059C 17.0704 101.691 15.7994 64.562 40.1614 40.191Z"/>
<path id="path2_fill" d="M 384.298 1.1913C 375.492 -1.1727 366.293 0.03929 358.928 4.31429L 260.718 52.1183C 245.452 59.7553 230.041 59.7553 196.266 59.7553C 163.251 59.7553 112.844 51.4183 112.332 51.3413C 107.681 50.5733 103.287 53.7053 102.519 58.3473C 101.742 62.9983 104.883 67.3923 109.533 68.1693C 111.649 68.5273 161.825 76.8223 196.266 76.8223C 231.696 76.8223 249.48 76.8223 268.262 67.4273L 366.933 19.3763C 370.875 17.0983 375.483 16.4923 379.878 17.6693C 384.281 18.8553 387.968 21.6803 390.237 25.6223C 394.947 33.7713 392.14 44.2333 383.76 49.0803L 268.381 120.888C 268.142 121.05 243.523 136.555 187.733 136.555C 139.358 136.555 64.623 95.3733 63.547 94.7843C 62.77 94.4003 44.262 85.3553 8.533 85.3553C 3.814 85.3553 9.76563e-07 89.1783 9.76563e-07 93.8883C 9.76563e-07 98.5983 3.814 102.421 8.533 102.421C 39.569 102.421 55.56 109.888 55.594 109.888C 55.594 109.888 55.594 109.888 55.594 109.879C 58.82 111.671 134.928 153.621 187.733 153.621C 249.344 153.621 276.667 135.872 277.572 135.266L 392.533 63.7143C 408.823 54.3023 414.43 33.3863 405.026 17.0883C 400.468 9.19531 393.104 3.5463 384.298 1.1913Z"/>
<path id="path3_fill" d="M 25.6 12.8C 25.6 5.74301 19.857 -9.76562e-06 12.8 -9.76562e-06C 5.743 -9.76562e-06 -5.64575e-07 5.74301 -5.64575e-07 12.8C -5.64575e-07 19.857 5.743 25.6 12.8 25.6C 19.857 25.6 25.6 19.857 25.6 12.8Z"/>
<path id="path4_fill" d="M 59.733 -1.95312e-06L 8.533 -1.95312e-06C 3.814 -1.95312e-06 7.10543e-15 3.82299 7.10543e-15 8.53299C 7.10543e-15 13.243 3.814 17.066 8.533 17.066L 59.733 17.066C 64.443 17.066 68.266 20.897 68.266 25.599L 68.266 213.332C 68.266 218.034 64.443 221.865 59.733 221.865L 8.533 221.865C 3.814 221.865 0 225.688 0 230.398C 0 235.108 3.814 238.931 8.533 238.931L 59.733 238.931C 73.847 238.931 85.333 227.445 85.333 213.331L 85.333 25.6C 85.333 11.486 73.847 -1.95312e-06 59.733 -1.95312e-06Z"/>
<path id="path5_fill" d="M 8.533 17.067L 76.8 17.067C 86.758 17.067 103.68 29.765 118.613 40.96C 137.335 55.006 155.025 68.267 170.666 68.267L 221.866 68.267C 234.828 68.267 241.262 74.146 241.433 74.3C 243.097 75.964 245.282 76.8 247.466 76.8C 249.651 76.8 251.835 75.964 253.499 74.3C 256.835 70.963 256.835 65.57 253.499 62.234C 252.373 61.108 241.894 51.2 221.866 51.2L 170.666 51.2C 160.708 51.2 143.786 38.502 128.853 27.307C 110.131 13.261 92.441 -6.34766e-06 76.8 -6.34766e-06L 8.533 -6.34766e-06C 3.814 -6.34766e-06 1.52588e-06 3.82301 1.52588e-06 8.53301C 1.52588e-06 13.243 3.814 17.067 8.533 17.067Z"/>
</defs>
</svg>
