<svg width="513" height="512" viewBox="0 0 513 512" version="1.1" xmlns="http://www.w3.org/2000/svg" xmlns:xlink="http://www.w3.org/1999/xlink">
<title>growth</title>
<desc>Created using Figma</desc>
<g id="Canvas" transform="translate(362 -400)">
<g id="growth">
<g id="Group">
<g id="Group">
<g id="Group">
<g id="Vector">
<use xlink:href="#path0_fill" transform="translate(-362 803.212)" fill="#FFFFFF"/>
</g>
<g id="Vector">
<use xlink:href="#path1_fill" transform="translate(-259.599 655.882)" fill="#FFFFFF"/>
</g>
<g id="Vector">
<use xlink:href="#path2_fill" transform="translate(-71.865 630.283)" fill="#FFFFFF"/>
</g>
<g id="Vector">
<use xlink:href="#path3_fill" transform="translate(-37.7357 468.149)" fill="#FFFFFF"/>
</g>
<g id="Vector">
<use xlink:href="#path4_fill" transform="translate(-54.8 894.816)" fill="#FFFFFF"/>
</g>
<g id="Vector">
<use xlink:href="#path5_fill" transform="translate(-105.964 400)" fill="#FFFFFF"/>
</g>
</g>
</g>
</g>
</g>
</g>
<defs>
<path id="path0_fill" d="M 128 91.6045L 21.581 91.6045C 24.32 82.6875 26.001 69.9385 21.274 55.1505C 16.512 40.2685 20.233 27.3745 31.232 20.6675C 36.693 17.3315 42.743 16.4865 47.676 17.7495C 43.213 26.3765 39.049 40.4905 47.727 55.5095C 57.259 72.0385 73.54 74.5135 82.398 74.5135C 86.759 74.5135 89.805 73.9165 90.138 73.8475C 91.956 73.4725 93.594 72.5245 94.823 71.1425C 95.608 70.2545 113.938 49.1265 100.139 25.2505C 93.031 12.9455 80.197 5.8965 64.922 5.8965C 63.983 5.8965 63.121 5.92249 62.353 5.96449C 51.55 -1.92851 35.78 -2.09049 22.349 6.09251C 8.312 14.6515 -3.609 33.3995 5.009 60.3555C 11.358 80.1865 1.886 94.7025 1.51 95.2565C 1.322 95.5215 1.288 95.8365 1.143 96.1185C 0.887 96.5795 0.682 97.0575 0.52 97.5775C 0.332 98.1575 0.221 98.7205 0.17 99.3185C 0.137 99.5995 0 99.8475 0 100.137C 0 100.402 0.128 100.616 0.154 100.872C 0.197 101.435 0.316 101.964 0.478 102.502C 0.649 103.065 0.828 103.594 1.101 104.098C 1.323 104.516 1.587 104.882 1.886 105.258C 2.296 105.796 2.731 106.257 3.251 106.684C 3.422 106.812 3.507 107.008 3.686 107.128C 3.942 107.307 4.232 107.384 4.505 107.529C 4.898 107.742 5.264 107.947 5.683 108.101C 6.417 108.357 7.168 108.494 7.927 108.545C 8.14 108.562 8.32 108.673 8.533 108.673L 128 108.673C 132.71 108.673 136.533 104.85 136.533 100.14C 136.533 95.4295 132.71 91.6045 128 91.6045ZM 64.316 22.9705C 70.588 22.8685 80.026 24.5495 85.359 33.7825C 91.059 43.6475 86.562 53.1025 83.797 57.4115C 83.362 57.4285 82.901 57.4455 82.398 57.4455C 76.075 57.4455 67.499 55.6275 62.507 46.9755C 56.815 37.1275 61.449 27.4255 64.316 22.9705Z"/>
<path id="path1_fill" d="M 179.199 238.934L 85.332 238.934L 85.332 204.801L 97.279 204.801C 98.26 204.801 121.471 204.613 137.445 188.647C 153.411 172.672 153.599 149.462 153.599 148.48L 153.599 128C 153.599 123.29 149.776 119.467 145.066 119.467L 124.586 119.467C 123.605 119.467 100.394 119.655 84.42 135.621C 76.561 143.489 72.533 153.089 70.459 160.948C 68.872 159.258 67.293 157.629 65.766 156.101C 58.615 148.95 52.787 143.105 51.481 132.617C 61.986 125.611 85.333 105.822 85.333 68.2673C 85.333 20.8733 48.068 1.69826 46.481 0.896256C 44.083 -0.298744 41.25 -0.298744 38.852 0.896256C 37.265 1.69826 9.76562e-07 20.8733 9.76562e-07 68.2673C 9.76562e-07 106.539 24.277 126.388 34.466 133.044C 36.096 150.375 45.739 160.206 53.7 168.167C 61.841 176.308 68.266 182.733 68.266 196.267L 68.266 238.934L 59.733 238.934C 55.023 238.934 51.2 242.757 51.2 247.467C 51.2 252.177 55.023 256 59.733 256L 179.199 256C 183.918 256 187.732 252.177 187.732 247.467C 187.732 242.757 183.918 238.934 179.199 238.934ZM 85.332 175.821C 85.332 175.65 85.597 158.575 96.485 147.687C 107.373 136.799 124.44 136.534 124.585 136.534L 136.532 136.534L 136.532 148.447C 136.532 148.618 136.267 165.693 125.379 176.581C 114.576 187.384 97.688 187.726 97.253 187.734L 85.332 187.734L 85.332 175.821ZM 42.674 118.016C 34.721 112.512 17.065 97.0503 17.065 68.2673C 17.065 39.3823 34.652 24.0133 42.648 18.5183C 50.601 24.0223 68.265 39.4763 68.265 68.2673C 68.266 97.1353 50.696 112.504 42.674 118.016Z"/>
<path id="path2_fill" d="M 213.332 264.533L 102.398 264.533L 102.398 162.133L 119.465 162.133C 120.66 162.133 148.82 161.911 168.165 142.566C 187.51 123.221 187.732 95.061 187.732 93.866L 187.732 68.266C 187.732 63.556 183.918 59.733 179.199 59.733L 153.599 59.733C 152.404 59.733 124.244 59.955 104.899 79.3C 104.02 80.188 103.209 81.109 102.399 82.031L 102.399 8.533C 102.399 3.823 98.585 -4.76074e-06 93.866 -4.76074e-06C 89.147 -4.76074e-06 85.333 3.823 85.333 8.533L 85.333 133.231C 84.522 132.309 83.712 131.388 82.833 130.5C 63.488 111.155 35.328 110.933 34.133 110.933L 8.533 110.933C 3.814 110.933 9.76562e-06 114.756 9.76562e-06 119.466L 9.76562e-06 145.066C 9.76562e-06 146.261 0.221996 174.421 19.567 193.766C 38.912 213.111 67.072 213.333 68.267 213.333L 85.334 213.333L 85.334 264.533L 76.801 264.533C 72.082 264.533 68.268 268.356 68.268 273.066C 68.268 277.776 72.082 281.599 76.801 281.599L 213.334 281.599C 218.053 281.599 221.867 277.776 221.867 273.066C 221.867 268.356 218.051 264.533 213.332 264.533ZM 102.398 127.999C 102.398 127.777 102.569 105.761 116.964 91.365C 131.223 77.106 153.401 76.799 153.598 76.799L 170.665 76.799L 170.665 93.866C 170.665 94.088 170.494 116.095 156.099 130.5C 141.942 144.657 119.977 145.058 119.448 145.066L 102.398 145.066L 102.398 127.999ZM 85.332 196.266L 68.265 196.266C 68.052 196.266 46.027 196.095 31.631 181.7C 17.372 167.441 17.065 145.263 17.065 145.066L 17.065 127.999L 34.132 127.999C 34.345 127.999 56.361 128.161 70.766 142.565C 85.025 156.824 85.332 179.002 85.332 179.199L 85.332 196.266Z"/>
<path id="path3_fill" d="M 8.53574 119.467C 10.7207 119.467 12.9048 118.631 14.5688 116.967L 42.5327 89.003C 47.6017 91.99 53.4387 93.824 59.7357 93.824C 66.0337 93.824 71.8698 91.989 76.9388 89.003L 104.903 116.967C 106.567 118.631 108.752 119.467 110.936 119.467C 113.121 119.467 115.305 118.631 116.969 116.967C 120.306 113.631 120.306 108.237 116.969 104.901L 89.0218 76.946C 92.0258 71.86 93.8687 66.006 93.8687 59.692C 93.8687 53.386 92.0338 47.558 89.0478 42.489L 116.969 14.568C 120.306 11.231 120.306 5.838 116.969 2.502C 113.632 -0.834001 108.239 -0.834001 104.903 2.502L 76.9897 30.415C 71.9127 27.403 66.0587 25.56 59.7357 25.56C 53.4127 25.56 47.5587 27.403 42.4727 30.415L 14.5688 2.502C 11.2328 -0.834001 5.83875 -0.834001 2.50275 2.502C -0.834252 5.839 -0.834252 11.232 2.50275 14.568L 30.4237 42.489C 27.4367 47.558 25.6028 53.386 25.6028 59.692C 25.6028 66.007 27.4457 71.861 30.4497 76.946L 2.50275 104.901C -0.834252 108.238 -0.834252 113.631 2.50275 116.967C 4.16675 118.63 6.35074 119.467 8.53574 119.467ZM 47.5247 47.804C 47.5757 47.753 47.6437 47.744 47.6957 47.693C 47.7557 47.633 47.7637 47.565 47.8157 47.505C 50.8967 44.493 55.0948 42.624 59.7368 42.624C 64.3788 42.624 68.5777 44.493 71.6497 47.505C 71.7097 47.565 71.7177 47.633 71.7777 47.693C 71.8287 47.744 71.8978 47.753 71.9488 47.804C 74.9358 50.876 76.8037 55.066 76.8037 59.691C 76.8037 69.103 69.1498 76.758 59.7368 76.758C 50.3248 76.758 42.6697 69.104 42.6697 59.691C 42.6687 55.066 44.5377 50.876 47.5247 47.804Z"/>
<path id="path4_fill" d="M 25.6 0L 8.533 0C 3.814 0 1.2207e-05 3.82299 1.2207e-05 8.53299C 1.2207e-05 13.243 3.814 17.066 8.533 17.066L 25.6 17.066C 30.319 17.066 34.133 13.243 34.133 8.53299C 34.133 3.82299 30.319 0 25.6 0Z"/>
<path id="path5_fill" d="M 0.0747514 192.062C -0.787249 207.431 5.80876 222.253 19.6758 236.12C 46.6928 263.137 77.9758 262.241 106.887 233.33C 114.934 225.292 122.554 212.364 127.964 201.953C 133.374 212.355 140.994 225.292 149.041 233.33C 163.966 248.246 179.351 255.815 194.771 255.815L 194.78 255.815C 209.227 255.815 223.179 249.193 236.252 236.12C 250.119 222.253 256.715 207.422 255.853 192.037C 255.034 177.496 247.482 162.99 233.41 148.918C 225.38 140.871 212.461 133.345 202.059 128.02C 212.453 122.542 225.381 114.845 233.41 106.806C 247.481 92.7352 255.033 78.2192 255.853 63.6612C 256.715 48.2582 250.119 33.4192 236.252 19.5522C 209.27 -7.43877 177.978 -6.49177 149.041 22.4362C 140.994 30.4742 133.374 43.4112 127.964 53.8132C 122.554 43.4112 114.934 30.4742 106.887 22.4362C 77.9588 -6.49177 46.6668 -7.43077 19.6758 19.5522C 5.80876 33.4192 -0.787249 48.2582 0.0747514 63.6612C 0.893751 78.2192 8.44574 92.7342 22.5177 106.806C 30.5557 114.853 43.4928 122.465 53.8948 127.858C 43.4928 133.277 30.5557 140.923 22.5177 148.961C 8.44574 163.031 0.893751 177.538 0.0747514 192.062ZM 77.0708 135.69C 80.2278 134.35 82.2758 131.253 82.2758 127.822C 82.2668 124.392 80.2108 121.303 77.0448 119.971C 76.7548 119.843 47.1017 107.265 34.5827 94.7382C 23.5747 83.7222 17.6868 72.9442 17.1148 62.6952C 16.5348 52.3612 21.4588 41.9082 31.7498 31.6172C 52.2038 11.1802 72.6247 12.3232 94.8197 34.5012C 107.347 47.0362 119.976 76.6812 120.104 76.9802C 121.435 80.1372 124.541 82.1852 127.963 82.1852C 131.393 82.1852 134.491 80.1372 135.822 76.9802C 139.321 68.6942 150.679 44.9292 161.106 34.5012C 183.293 12.3312 203.721 11.1712 224.176 31.6252C 234.467 41.9082 239.391 52.3612 238.811 62.6952C 238.239 72.9442 232.351 83.7212 221.343 94.7382C 208.799 107.291 179.103 120.193 178.804 120.312C 175.655 121.677 173.633 124.792 173.65 128.222C 173.684 131.652 175.766 134.733 178.941 136.039C 179.231 136.167 208.842 148.472 221.343 160.982C 232.36 171.99 238.239 182.768 238.811 192.999C 239.391 203.316 234.468 213.761 224.176 224.052C 214.431 233.806 204.541 238.746 194.779 238.746C 184.036 238.746 172.712 232.867 161.106 221.261C 148.579 208.734 135.941 179.081 135.822 178.782C 134.491 175.625 131.385 173.568 127.963 173.568C 124.533 173.568 121.435 175.625 120.104 178.782C 116.605 187.068 105.247 210.842 94.8197 221.261C 72.6587 243.422 52.2128 244.523 31.7498 224.051C 21.4588 213.76 16.5348 203.324 17.1148 193.024C 17.6868 182.801 23.5657 172.041 34.5827 161.024C 47.1107 148.49 76.7728 135.818 77.0708 135.69Z"/>
</defs>
</svg>
